<svg xmlns="http://www.w3.org/2000/svg" viewBox="0 0 700 700"><defs><style>.cls-1{fill:#2ff141;}.cls-2{fill:#2b4835;}</style></defs><title>Risorsa 1</title><g id="Livello_2" data-name="Livello 2"><g id="draw"><circle class="cls-1" cx="350" cy="350" r="350"/><path class="cls-2" d="M617.12,507.54a307.3,307.3,0,0,0,42.15-155.7C659.27,181.31,520.53,42.58,350,42.58h-.13C179.4,42.65,40.73,181.36,40.73,351.84A307.4,307.4,0,0,0,78.11,499.13q2.31,4.56,5,9l.11-.07C136.94,599.54,236.41,661.11,350,661.11c111.47,0,209.35-59.29,263.78-148,1.19-1.81,2.36-3.65,3.47-5.52Zm27.06-155.7a292.4,292.4,0,0,1-43,153,133.37,133.37,0,0,1-111,60c-73.14,0-132.64-59.5-132.64-132.63a133.14,133.14,0,0,1,66.39-114.93l-.12-.2a147.14,147.14,0,0,0,12.25-246.6C556.41,107.4,644.18,219.56,644.18,351.84ZM350,385.77A147.79,147.79,0,0,0,320,334a149.15,149.15,0,0,0,29.88,3A147.13,147.13,0,0,0,380,334,148.82,148.82,0,0,0,350,385.77Zm-.09-328.11C422.77,57.7,482,117,482,189.82S422.74,322,349.87,322a132.35,132.35,0,0,1-66-17.53l0,.06a146.78,146.78,0,0,0-74-19.9C133.76,284.6,70.94,342.4,63,416.39a294.1,294.1,0,0,1-7.15-64.55C55.82,189.65,187.75,57.7,349.93,57.66ZM91.51,492.19a132.58,132.58,0,0,1,118.32-192.5c73.13,0,132.63,59.49,132.63,132.63h0C342.5,513.73,408.75,580,490.18,580A147.34,147.34,0,0,0,550.36,567,293.11,293.11,0,0,1,350,646C238.58,646,141.42,583.75,91.51,492.19Z"/></g></g></svg>