<svg xmlns="http://www.w3.org/2000/svg" viewBox="0 0 300 300"><defs><style>.cls-1{fill:#2b4835;}.cls-2{fill:#f2f5ec;}</style></defs><title>Risorsa 10</title><g id="Livello_2" data-name="Livello 2"><g id="content"><circle class="cls-1" cx="150" cy="150" r="150"/><path class="cls-2" d="M196,150.16c-.84-1.9-1.67-3.8-2.51-5.71-9.34-21.24-18.61-42.51-28.11-63.67a18.73,18.73,0,0,0-5.66-7.4c-4-2.89-8.6-2-12.13,1.25-4,3.68-4.17,8.42-2.05,13.25q8.42,19.25,16.89,38.46c.72,1.65,1.76,3.25,2,5,.19,1.27-.64,2.69-1,4-1.25-.68-2.8-1.11-3.67-2.13s-1.4-2.84-2-4.31c-7.41-16.84-14.78-33.7-22.25-50.52-2.9-6.55-7.62-9.16-13.12-7.57-6.79,2-9.46,8.5-6.22,16,7.39,17.07,14.95,34.07,22.43,51.1a18.07,18.07,0,0,1,1.77,4.43c.16,1.12-.62,2.37-1,3.57-1.17-.44-2.69-.57-3.43-1.39a15.74,15.74,0,0,1-2.13-4.26c-6.54-14.83-13-29.67-19.59-44.48-3.36-7.59-9.09-10.51-15-7.82s-7.6,8.93-4.29,16.5c7.61,17.41,15.36,34.77,22.82,52.24.73,1.7-.09,4.07-.19,6.13-1.5-1.3-3.64-2.3-4.39-3.94-5.27-11.44-10.22-23-15.34-34.55-3.35-7.52-8.41-10.1-14.5-7.56s-8,8.63-4.72,16.16q17,38.75,34.05,77.45c11.61,26.35,33.74,36.3,60.83,26.56,24.66-8.87,41.46-24.67,44.7-52.42,1.85-15.86,5.49-31.49,7.78-47.3a21.3,21.3,0,0,0-1.87-12c-2.16-4.28-6.63-6.16-11.79-5.13-5.72,1.14-9.17,4.79-10.59,10.18-1.72,6.48-3,13.07-4.46,19.61Z"/><path class="cls-2" d="M227.35,110.29a2.73,2.73,0,0,1-2.32-3.1,51.62,51.62,0,0,0-43.79-58.3,2.74,2.74,0,0,1,.77-5.42A57.1,57.1,0,0,1,230.45,108,2.74,2.74,0,0,1,227.35,110.29Z"/><path class="cls-2" d="M210.79,106.36a2.73,2.73,0,0,1-2.33-3.09,32.86,32.86,0,0,0-27.87-37.12,2.74,2.74,0,1,1,.77-5.42A38.35,38.35,0,0,1,213.88,104,2.72,2.72,0,0,1,210.79,106.36Z"/><path class="cls-2" d="M83.46,205.2a57.08,57.08,0,0,1-40.57-69.7,2.74,2.74,0,1,1,5.29,1.4,51.61,51.61,0,0,0,36.68,63,2.74,2.74,0,0,1-1.4,5.29Z"/><path class="cls-2" d="M86.12,188.14a38.35,38.35,0,0,1-27.24-46.81,2.74,2.74,0,1,1,5.29,1.4,32.86,32.86,0,0,0,23.35,40.11,2.74,2.74,0,0,1-1.4,5.3Z"/></g></g></svg>