<svg xmlns="http://www.w3.org/2000/svg" viewBox="0 0 300 300"><defs><style>.cls-1{fill:#2b4835;}.cls-2{fill:#f2f5ec;}</style></defs><title>Risorsa 8</title><g id="Livello_2" data-name="Livello 2"><g id="content"><circle class="cls-1" cx="150" cy="150" r="150"/><circle class="cls-2" cx="148.61" cy="114.33" r="46.29"/><path class="cls-2" d="M167.32,237.51l-.71,0a10,10,0,0,1-7.14-3.77l-24.7-31.2a10,10,0,1,1,15.69-12.41l17.91,22.62,27.44-26a80.78,80.78,0,0,0-47.2-15.53c-32.77,0-61.55,20.46-78,51.3,32,44.85,124,43.85,156,0A109.46,109.46,0,0,0,210.82,200L174.2,234.77A10,10,0,0,1,167.32,237.51Z"/><path class="cls-2" d="M238.64,159.84a10,10,0,0,0-14.13-.37l-28.7,27.22a96.2,96.2,0,0,1,15,13.34L238.27,174A10,10,0,0,0,238.64,159.84Z"/></g></g></svg>