<svg xmlns="http://www.w3.org/2000/svg" viewBox="0 0 300 300"><defs><style>.cls-1{fill:#2b4835;}.cls-2{fill:#f2f5ec;}</style></defs><title>Risorsa 9</title><g id="Livello_2" data-name="Livello 2"><g id="content"><circle class="cls-1" cx="150" cy="150" r="150"/><path class="cls-2" d="M147.19,143.23c.8-.37,1.56-.73,2.36-1.08-.68-.48-1.37-1-2-1.47C147.39,141.53,147.28,142.38,147.19,143.23Z"/><path class="cls-2" d="M240.63,97.64a61.53,61.53,0,0,0-92.39,39.07,48.75,48.75,0,0,0,5.19,3.74A66.38,66.38,0,0,1,160,138a2.34,2.34,0,0,0,.34-.11,65.41,65.41,0,0,1,57.12,9.64,61.83,61.83,0,0,0,23.21-49.93Z"/><path class="cls-2" d="M232.4,169.73a61.48,61.48,0,0,0-74.91-26.81,67.45,67.45,0,0,1,26.22,31c0,.17,1,2.41,1,2.67A67.8,67.8,0,0,1,189,199v3h0c0,2.09-.2,4.17-.42,6.24a61.74,61.74,0,0,0,52-6A61.08,61.08,0,0,0,232.4,169.73Z"/><path class="cls-2" d="M152.81,156.51c-.8.4-1.62.8-2.47,1.19.71.49,1.42,1,2.1,1.54C152.61,158.33,152.72,157.42,152.81,156.51Z"/><path class="cls-2" d="M151.73,163.24a47.84,47.84,0,0,0-5.19-3.75c-1.53.65-3.09,1.28-4.68,1.82h0a65.39,65.39,0,0,1-59.27-8.94,61.54,61.54,0,0,0-23.19,49.94,61.49,61.49,0,0,0,92.36-39.07Z"/><path class="cls-2" d="M142.48,157a67.39,67.39,0,0,1-26.19-31h0c-.14-.31-1-2.58-1.05-2.67h0A67.7,67.7,0,0,1,111,101V98c.05-2.1.2-4.17.42-6.24a61.44,61.44,0,0,0-52,5.93A61.47,61.47,0,0,0,142.48,157Z"/><path class="cls-2" d="M180.42,225.6c.05-.14,1-2.52,1-2.55a63.67,63.67,0,0,0,4.06-21.14V199a64.75,64.75,0,0,0-4.06-21.16c0-.12-.94-2.36-1-2.56a64.18,64.18,0,0,0-27.24-30.87A52,52,0,0,1,134,125.19c-.94-1.71-2.7-5.56-3.35-7.1a51.9,51.9,0,0,1,1-39.78c.65-1.39,2.36-4.62,2.47-4.82l.62-1.11h0A51.43,51.43,0,0,1,150,56.44,52,52,0,0,1,166,73.83a52.72,52.72,0,0,1,6.56,21,56.48,56.48,0,0,1,12-6.22A65.41,65.41,0,0,0,175,64.13a63.87,63.87,0,0,0-21.82-20.66c-.82-.48-1.65-.94-2.58-1.42l-.6-.31-.6.31c-.93.48-1.76.94-2.58,1.42a64.18,64.18,0,0,0-27.24,30.87c0,.09-1,2.47-1,2.55a63.79,63.79,0,0,0-4.06,21.17v2.87a64.75,64.75,0,0,0,4.06,21.16c0,.12.94,2.36,1,2.56a64.18,64.18,0,0,0,27.24,30.87A52,52,0,0,1,166,174.78c.94,1.71,2.7,5.57,3.35,7.1a51.73,51.73,0,0,1,3.46,19.75,51.21,51.21,0,0,1-4.48,20c-.65,1.39-2.36,4.62-2.47,4.82l-.62,1.11h0A51.43,51.43,0,0,1,150,243.53a51.84,51.84,0,0,1-22.42-36.74,112.06,112.06,0,0,1-11.89,6A65.18,65.18,0,0,0,125,235.87a63.87,63.87,0,0,0,21.82,20.66c.82.48,1.65.94,2.58,1.42l.6.31.54-.37c.93-.48,1.76-.93,2.58-1.42A64,64,0,0,0,180.42,225.6Z"/></g></g></svg>