<svg xmlns="http://www.w3.org/2000/svg" viewBox="0 0 300 300"><defs><style>.cls-1{fill:#2b4835;}.cls-2{fill:#f2f5ec;}</style></defs><title>Risorsa 4</title><g id="Livello_2" data-name="Livello 2"><g id="Livello_1-2" data-name="Livello 1"><circle class="cls-1" cx="150" cy="150" r="150"/><path class="cls-2" d="M164.9,148.73l22-12.72v9.64L167.4,156.92a58,58,0,0,1,19.06,42.27c0,36-33.53,53.16-35,53.88a4.13,4.13,0,0,1-3.69,0c-1.3-.65-28.9-14.81-34.11-44.17l7.71-4.46c2.65,23.1,22.09,36.54,28.23,40.23,6.6-4,28.57-19.27,28.57-45.48,0-17.65-9.88-30.3-18.38-37.91l-46.78,27v-9.64l30.28-17.48Zm-24.38-11.25C131.8,130,121.11,117,121.11,98.65c0-26.35,22-41.52,28.66-45.5,6.26,3.78,26.5,17.66,28.38,41.6l7.75-4.48c-4.6-30.28-33-44.88-34.3-45.53a4.17,4.17,0,0,0-3.68,0C146.5,45.47,113,62.67,113,98.65c0,20.16,10.55,34.45,20,43.21l-19.85,11.47v9.49l23.39-13.49,17.24-10L187,120.09v-9.64Z"/></g></g></svg>