<svg xmlns="http://www.w3.org/2000/svg" viewBox="0 0 700 700"><defs><style>.cls-1{fill:#2ff141;}.cls-2{fill:#2b4835;}</style></defs><title>Risorsa 1</title><g id="Livello_2" data-name="Livello 2"><g id="draw"><circle class="cls-1" cx="350" cy="350" r="350"/><path class="cls-2" d="M571.45,134.15c-.91-1-1.83-1.9-2.77-2.83A309.26,309.26,0,1,0,131.32,568.68,309.25,309.25,0,0,0,571.45,134.15ZM55.82,350A294.18,294.18,0,0,1,558,142,143.32,143.32,0,0,1,355.33,344.67c-61.75-61.76-162.25-61.76-224,0a158.26,158.26,0,0,0-44.25,137.6A292.91,292.91,0,0,1,55.82,350ZM558,558a294.2,294.2,0,0,1-416,0C86.1,502.14,86.1,411.21,142,355.33s146.8-55.88,202.69,0a158.41,158.41,0,0,0,270.41-112,161.32,161.32,0,0,0-2-25.34A294.72,294.72,0,0,1,558,558Z"/></g></g></svg>