<svg xmlns="http://www.w3.org/2000/svg" viewBox="0 0 300 300"><defs><style>.cls-1{fill:#2b4835;}.cls-2{fill:#f2f5ec;}</style></defs><title>Risorsa 1</title><g id="Livello_2" data-name="Livello 2"><g id="Livello_1-2" data-name="Livello 1"><circle class="cls-1" cx="150" cy="150" r="150"/><path class="cls-2" d="M245.14,218l-191.9,0c-.56,0-1.12-.1-2-.18v-7.56l7.92-.42V198.33H70.89l.6-8.2H224.67l.5,8h11.5v12.14h8.47Z"/><path class="cls-2" d="M63.57,96.78c-1.07-3.1-.28-4.91,2.95-6.24,26.22-10.84,52.35-21.88,78.58-32.7a8.63,8.63,0,0,1,6,0c26.09,10.76,52.1,21.74,78.18,32.52,3,1.26,4.48,2.8,3.32,6.4Z"/><path class="cls-2" d="M176.8,185.59H156.46c.64-24,1.27-47.76,1.91-71.84h16C175.2,137.57,176,161.34,176.8,185.59Z"/><path class="cls-2" d="M139.7,185.59H119.34c.8-24,1.58-47.79,2.38-71.86h15.6C138.11,137.54,138.9,161.32,139.7,185.59Z"/><path class="cls-2" d="M213.46,185.61H193.55c.64-24,1.27-47.77,1.91-71.86h15.7C211.92,137.58,212.69,161.37,213.46,185.61Z"/><path class="cls-2" d="M82.65,185.57c.67-24,1.32-47.76,2-71.83h15.59c.8,23.84,1.59,47.7,2.4,71.83Z"/><path class="cls-2" d="M216.55,101.46v7H79.75v-7Z"/></g></g></svg>