<svg xmlns="http://www.w3.org/2000/svg" viewBox="0 0 300 300"><defs><style>.cls-1{fill:#2b4835;}.cls-2{fill:#f2f5ec;}</style></defs><title>Risorsa 15</title><g id="Livello_2" data-name="Livello 2"><g id="content"><circle class="cls-1" cx="150" cy="150" r="150"/><path class="cls-2" d="M111.51,194.48c-.74,11.89-1.52,24.64-2.35,37.83H91.86c-.92-40.87,15.85-102.52,91.94-128.89-13.72-2.39-40.89,7.5-59,21.75-17.25,13.6-29.39,31-37.26,51.9-12.86-33.8-6.48-73.61,33.62-89.73,37.3-15,74-11.39,108.75,9,8.13,4.78,7.93,7.66,0,12.6-14.59,9.13-25.14,21.77-32.59,37.16-3.21,6.62-6.49,13.19-9.7,19.8-9.19,19-24.95,27.67-45.43,28.46C132.56,194.81,122.85,194.48,111.51,194.48Z"/></g></g></svg>