<svg xmlns="http://www.w3.org/2000/svg" viewBox="0 0 300 300"><defs><style>.cls-1{fill:#2b4835;}.cls-2{fill:#f2f5ec;}</style></defs><title>Risorsa 5</title><g id="Livello_2" data-name="Livello 2"><g id="contenuti"><circle class="cls-1" cx="150" cy="150" r="150"/><path class="cls-2" d="M64.18,136.6H235.82a6,6,0,0,0,1.21-.12l.15,0a5.45,5.45,0,0,0,1-.32c.1,0,.19-.11.29-.16a5.77,5.77,0,0,0,.76-.44c.1-.07.18-.15.28-.23a6.16,6.16,0,0,0,.65-.6.81.81,0,0,0,.1-.09c.06-.07.1-.15.16-.22s.29-.39.42-.59.16-.29.24-.44a5.79,5.79,0,0,0,.25-.57,5,5,0,0,0,.17-.55,4.54,4.54,0,0,0,.12-.53c0-.22,0-.44.07-.65s0-.21,0-.32,0-.12,0-.18q0-.33-.06-.66c0-.17,0-.34-.09-.51s-.11-.37-.17-.55a5,5,0,0,0-.2-.54,4,4,0,0,0-.25-.45,5,5,0,0,0-.33-.55c-.09-.12-.19-.23-.29-.35a6.26,6.26,0,0,0-.5-.53l-.1-.11L196.78,88.74A5.89,5.89,0,0,0,189,97.6l31.13,27.23h-156a5.89,5.89,0,1,0,0,11.77Z"/><path class="cls-2" d="M235.82,167.74H64.18l-.18,0-.64.06c-.17,0-.35.05-.52.09a4.81,4.81,0,0,0-.54.16c-.19.07-.38.13-.56.21s-.29.16-.43.24-.39.22-.57.34l-.34.28a6.51,6.51,0,0,0-.54.51,1,1,0,0,1-.11.1c-.06.07-.1.15-.16.23a6.27,6.27,0,0,0-.42.59c-.09.14-.16.29-.24.44a5.62,5.62,0,0,0-.25.56c-.07.18-.12.37-.17.55a4.71,4.71,0,0,0-.12.54c0,.21,0,.43-.07.65s0,.21,0,.32,0,.12,0,.18c0,.22,0,.43.06.65s.05.34.09.51.11.37.17.56a4.81,4.81,0,0,0,.2.53,4.09,4.09,0,0,0,.25.46,6.16,6.16,0,0,0,.33.55c.09.12.19.23.29.34a6.39,6.39,0,0,0,.5.54.52.52,0,0,1,.1.11l42.92,37.54a5.88,5.88,0,1,0,7.75-8.85L79.84,179.52h156a5.89,5.89,0,1,0,0-11.78Z"/></g></g></svg>