<svg xmlns="http://www.w3.org/2000/svg" viewBox="0 0 300 300"><defs><style>.cls-1{fill:#2b4835;}.cls-2,.cls-3{fill:#f2f5ec;}.cls-2{opacity:0.4;}</style></defs><title>Risorsa 17</title><g id="Livello_2" data-name="Livello 2"><g id="Livello_1-2" data-name="Livello 1"><circle class="cls-1" cx="150" cy="150" r="150"/><path class="cls-2" d="M153.22,160c14,13.61,29.41,28.54,43.38,42.18,4.85,4.74,14,4.62,18.84-.25,4.65-4.69,4.19-11.45-1.15-16.82q-15.3-15.36-30.58-30.74l-.74-.74c-3.58-3.6-7.16-7.2-10.68-10.85l2.63-2.66c.94.88,3.52,3.51,3.61,3.61l6.13,6.16Q201,166.25,217.27,182.6a13.16,13.16,0,0,0,4.09,2.86A12.38,12.38,0,0,0,236,181c3-4.6,2.22-10.19-2.07-14.59q-7.59-7.78-15.15-15.58c-10.13-10.42-20.59-21.19-31-31.72-3.57-3.63-7.39-7.14-11.09-10.55q-2.35-2.16-4.7-4.35l-.19.22c-.18.22-.37.45-.58.66-9.58,9.57-19.49,19.46-29.28,29.13-6.16,6.08-14.93,6.22-20.86.33a15.5,15.5,0,0,1-4.89-10.89,14.79,14.79,0,0,1,4.64-10.56c3-3,6.16-6,9.19-8.92,2.7-2.58,5.39-5.16,8-7.78,2.46-2.43,4.77-4.91,7.23-7.53C146.22,87.9,147.1,87,148,86l-1.71-1.58c-1.54-1.41-3.07-2.82-4.58-4.26-14.21-13.55-31.58-18-51.63-13.23C79.9,69.38,70.94,75,61,85.16c-19.54,20-20.28,51.71-1.66,72.25l6.61,7.35,4.95,5.5c.1.12.21.22.32.33l.43-.75A15.54,15.54,0,0,1,74,166.49l1.94-2c4.74-4.77,9.65-9.71,14.79-14.23s11.31-5.21,17.64-2.2c6.16,2.92,9.44,8,9.49,14.73a30.44,30.44,0,0,1-.51,5c0,.3-.09.61-.14.91a16.05,16.05,0,0,1,16.53,5c4.25,4.64,5.38,10.23,3.39,16.63a17.07,17.07,0,0,1,20.22,21.79,19.84,19.84,0,0,1,4.32-.5c6.36,0,11.76,3.4,14.91,9.59l.15.3a4.27,4.27,0,0,0,.62,1,12.17,12.17,0,0,0,8.58,3.79,10.72,10.72,0,0,0,7.86-2.72c3.17-3,4.86-6.36,4.89-9.63a11.17,11.17,0,0,0-3.69-8q-11.31-11.13-22.7-22.16-5.92-5.76-11.84-11.53c-2.43-2.37-7.67-7.34-10.09-9.73Z"/><path class="cls-3" d="M130.69,108.84q-3.42,3.34-6.85,6.68a11.37,11.37,0,0,0-3.74,8.09,11.2,11.2,0,0,0,3.52,8c4.63,4.64,11,4.5,15.92-.35,9-8.9,19.63-19.48,30.51-30.45a4.08,4.08,0,0,1,2.74-1.53h0a3.91,3.91,0,0,1,2.63,1.45q15.07,15.61,30.24,31.13l12.93,13.27c4.91,5,9.8,10.1,14.76,15.23l6.09,6.28A84.18,84.18,0,0,0,251,148.42c7.86-17,8.19-32.76,1-48C247.92,91.69,241.24,85,234.63,79A49.75,49.75,0,0,0,200,65.69c-15.4.11-29.17,5.55-40.93,16.16C149.39,90.59,139.88,99.87,130.69,108.84Z"/><path class="cls-3" d="M133.29,196.55c-6.11,5.47-11.43,10.61-16.24,15.72-3.69,3.91-4.39,8.71-2,13.87a12,12,0,0,0,10.61,7.51h.12c4.13,0,7-1,9.51-3.21,1.16-1,2.27-2.12,3.38-3.2l1.25-1.22q1.65-1.61,3.33-3.19c2.51-2.39,5.11-4.86,7.53-7.41a12.84,12.84,0,0,0,0-17.68C146,192.74,138.15,192.21,133.29,196.55Z"/><path class="cls-3" d="M77.91,167.76c-2.92,2.83-4.2,5.87-4.15,7.49v0c0,7.21,2.36,11.47,7.52,13.8s10.08,1.49,14.29-2.4c5.13-4.75,10.23-9.8,14.59-14.15a12.88,12.88,0,0,0-8.88-22.19A13.38,13.38,0,0,0,92,154.14l-1.84,1.78Q84,161.83,77.91,167.76Z"/><path class="cls-3" d="M161.51,215.38a12.7,12.7,0,0,0-8.73,3.48c-4.84,4.56-9.75,9.29-15,14.47a12.63,12.63,0,0,0-2.85,14.2c2.24,5,6.28,7.45,13.11,7.9.41-.17.9-.34,1.44-.52a15.49,15.49,0,0,0,5.09-2.51c5.42-4.7,10.81-9.87,16.46-15.81a12.57,12.57,0,0,0-.62-17.57A12.72,12.72,0,0,0,161.51,215.38Z"/><path class="cls-3" d="M130.56,175.85a12.64,12.64,0,0,0-9.07-3.89,13.22,13.22,0,0,0-9.14,3.79c-3.67,3.51-7.29,7.06-10.92,10.62l-3.85,3.78A11.54,11.54,0,0,0,93.93,199h0c0,5.57,2.52,9.5,7.37,11.68,5.19,2.32,9.92,1.54,14.06-2.34,5.06-4.73,10-9.55,14.83-14.31A12.78,12.78,0,0,0,130.56,175.85Z"/></g></g></svg>