<svg xmlns="http://www.w3.org/2000/svg" viewBox="0 0 300 300"><defs><style>.cls-1{fill:#2b4835;}.cls-2{fill:#f2f5ec;}</style></defs><title>Risorsa 16</title><g id="Livello_2" data-name="Livello 2"><g id="contenuti"><circle class="cls-1" cx="150" cy="150" r="150"/><path class="cls-2" d="M188.42,88.76A74.21,74.21,0,0,1,224,147.49a41.46,41.46,0,0,1,8.78,2.26A82.9,82.9,0,0,0,190.73,80,40.43,40.43,0,0,1,188.42,88.76Z"/><path class="cls-2" d="M76,147.26a74.21,74.21,0,0,1,35.59-58.5A40.43,40.43,0,0,1,109.27,80a82.88,82.88,0,0,0-42,69A40.37,40.37,0,0,1,76,147.26Z"/><path class="cls-2" d="M187.58,216.14a73.57,73.57,0,0,1-76.71-.95,41.45,41.45,0,0,1-6.55,6.15,82.47,82.47,0,0,0,90,.82A41.6,41.6,0,0,1,187.58,216.14Z"/><path class="cls-2" d="M219.13,155.55a32.72,32.72,0,1,0,32.72,32.72A32.72,32.72,0,0,0,219.13,155.55Z"/><path class="cls-2" d="M80.87,155.55a32.72,32.72,0,1,0,32.72,32.72A32.72,32.72,0,0,0,80.87,155.55Z"/><path class="cls-2" d="M151.17,40.88a32.72,32.72,0,1,0,32.71,32.71A32.71,32.71,0,0,0,151.17,40.88Z"/></g></g></svg>